<?xml version="1.0" encoding="UTF-8"?>
<svg xmlns="http://www.w3.org/2000/svg" version="1.1" xmlns:xlink="http://www.w3.org/1999/xlink" viewBox="0 0 48 48">
  <defs>
    <style>
      .cls-1 {
        fill: #fff;
      }

      .cls-2 {
        fill: none;
      }

      .cls-3 {
        fill: #edb139;
      }

      .cls-4 {
        fill: #99a2a6;
      }

      .cls-5 {
        fill: #009b99;
      }

      .cls-6 {
        clip-path: url(#clippath);
      }
    </style>
    <clipPath id="clippath">
      <rect class="cls-2" x="3.57" y="1.9" width="43.96" height="29.31"/>
    </clipPath>
  </defs>
  <!-- Generator: Adobe Illustrator 28.7.9, SVG Export Plug-In . SVG Version: 1.2.0 Build 218)  -->
  <g>
    <g id="Ebene_1">
      <g>
        <g>
          <path class="cls-5" d="M3.57,31.21c16.26,3.74,27.71-3.74,43.96,0,0-5.86,0-8.79,0-14.65-16.26-3.74-27.71,3.74-43.96,0,0,5.86,0,8.79,0,14.65Z"/>
          <path class="cls-3" d="M3.57,16.55c16.26,3.74,27.71-3.74,43.96,0,0-5.86,0-8.79,0-14.65-16.26-3.74-27.71,3.74-43.96,0v14.65Z"/>
        </g>
        <g class="cls-6">
          <path class="cls-1" d="M31.05,23.37c-4.33,0-6.14-4.78-6.73-6.35-1.24-3.3-2.47-4.64-4.26-4.64-2.54,0-3.95,2.87-3.95,5.18,0,0-.94.05-1.26.06-.34,0-1.35,0-1.35,0,0-3.76,2.2-7.88,6.56-7.88s6.02,4.45,6.73,6.35c1.2,3.16,2.55,4.64,4.26,4.64,2.69,0,4.13-2.89,4.13-5.2,0,0,.9-.02,1.33-.04.46-.02,1.3-.01,1.3-.01,0,3.76-2.55,7.89-6.76,7.89"/>
        </g>
      </g>
      <rect class="cls-4" x=".46" y=".5" width="2.65" height="47" rx="1.33" ry="1.33"/>
    </g>
  </g>
</svg>